<svg width="64" height="64" viewBox="0 0 64 64" fill="none" xmlns="http://www.w3.org/2000/svg">
<path d="M11 57V13H53V7H33L31 3H3V57C3 58.0609 3.42143 59.0783 4.17157 59.8284C4.92172 60.5786 5.93913 61 7 61C8.06087 61 9.07828 60.5786 9.82843 59.8284C10.5786 59.0783 11 58.0609 11 57Z" fill="#FFA733"/>
<path d="M53 13H11V57C11.0007 57.5255 10.8976 58.0459 10.6969 58.5315C10.4961 59.0171 10.2015 59.4583 9.8299 59.8299C9.45833 60.2015 9.01711 60.4961 8.53151 60.6969C8.04591 60.8976 7.52547 61.0007 7 61H57C58.0609 61 59.0783 60.5786 59.8284 59.8284C60.5786 59.0783 61 58.0609 61 57V13H53ZM26 48C25.4067 48 24.8266 47.8241 24.3333 47.4944C23.8399 47.1648 23.4554 46.6962 23.2284 46.148C23.0013 45.5999 22.9419 44.9967 23.0576 44.4147C23.1734 43.8328 23.4591 43.2982 23.8787 42.8787C24.2982 42.4591 24.8328 42.1734 25.4147 42.0576C25.9967 41.9419 26.5999 42.0013 27.1481 42.2284C27.6962 42.4554 28.1648 42.8399 28.4944 43.3333C28.8241 43.8266 29 44.4067 29 45C29 45.7956 28.6839 46.5587 28.1213 47.1213C27.5587 47.6839 26.7956 48 26 48ZM40 45C39.4067 45 38.8266 44.8241 38.3333 44.4944C37.8399 44.1648 37.4554 43.6962 37.2284 43.148C37.0013 42.5999 36.9419 41.9967 37.0576 41.4147C37.1734 40.8328 37.4591 40.2982 37.8787 39.8787C38.2982 39.4591 38.8328 39.1734 39.4147 39.0576C39.9967 38.9419 40.5999 39.0013 41.148 39.2284C41.6962 39.4554 42.1648 39.8399 42.4944 40.3333C42.8241 40.8266 43 41.4067 43 42C43 42.7956 42.6839 43.5587 42.1213 44.1213C41.5587 44.6839 40.7956 45 40 45ZM43 31L29 34V29L43 26V31Z" fill="#FFE477"/>
<path d="M29 34L43 31V26L29 29V34Z" fill="#FF9811"/>
<path d="M26 48C27.6569 48 29 46.6569 29 45C29 43.3431 27.6569 42 26 42C24.3431 42 23 43.3431 23 45C23 46.6569 24.3431 48 26 48Z" fill="#FF7956"/>
<path d="M40 45C41.6569 45 43 43.6569 43 42C43 40.3431 41.6569 39 40 39C38.3431 39 37 40.3431 37 42C37 43.6569 38.3431 45 40 45Z" fill="#FF7956"/>
<path d="M61 12H54V7.00001C54 6.7348 53.8946 6.48044 53.7071 6.29291C53.5196 6.10537 53.2652 6.00001 53 6.00001H33.618L31.9 2.55301C31.8166 2.38602 31.688 2.24572 31.529 2.14798C31.3699 2.05025 31.1867 1.999 31 2.00001H3C2.73478 2.00001 2.48043 2.10537 2.29289 2.29291C2.10536 2.48044 2 2.7348 2 3.00001V57C2.00159 58.3256 2.52888 59.5965 3.46622 60.5338C4.40356 61.4711 5.6744 61.9984 7 62H57C58.3256 61.9984 59.5964 61.4711 60.5338 60.5338C61.4711 59.5965 61.9984 58.3256 62 57V13C62 12.7348 61.8946 12.4804 61.7071 12.2929C61.5196 12.1054 61.2652 12 61 12ZM10 13V57C10 57.7957 9.68393 58.5587 9.12132 59.1213C8.55871 59.6839 7.79565 60 7 60C6.20435 60 5.44129 59.6839 4.87868 59.1213C4.31607 58.5587 4 57.7957 4 57V4.00002H30.382L32.1 7.44701C32.1834 7.61401 32.312 7.75431 32.471 7.85205C32.6301 7.94978 32.8133 8.00103 33 8.00001H52V12H11C10.7348 12 10.4804 12.1054 10.2929 12.2929C10.1054 12.4804 10 12.7348 10 13ZM60 57C60 57.7957 59.6839 58.5587 59.1213 59.1213C58.5587 59.6839 57.7956 60 57 60H11C11.65 59.135 12.001 58.082 12 57V14H60V57Z" fill="#231F20"/>
<path d="M26 49C27.0609 49 28.0783 48.5786 28.8284 47.8284C29.5786 47.0783 30 46.0609 30 45V34.809L42 32.237V38.556C41.3947 38.1961 40.7043 38.0041 40 38C39.2089 38 38.4355 38.2346 37.7777 38.6741C37.1199 39.1136 36.6072 39.7384 36.3045 40.4693C36.0017 41.2002 35.9225 42.0044 36.0769 42.7804C36.2312 43.5563 36.6122 44.269 37.1716 44.8284C37.731 45.3878 38.4437 45.7688 39.2196 45.9231C39.9956 46.0775 40.7998 45.9983 41.5307 45.6955C42.2616 45.3928 42.8864 44.8801 43.3259 44.2223C43.7654 43.5645 44 42.7911 44 42V26C44 25.8508 43.9667 25.7035 43.9025 25.5689C43.8382 25.4343 43.7446 25.3157 43.6286 25.222C43.5126 25.1282 43.3771 25.0616 43.232 25.027C43.0869 24.9924 42.9358 24.9907 42.79 25.022L28.79 28.022C28.5663 28.07 28.3659 28.1933 28.2221 28.3713C28.0783 28.5493 27.9999 28.7712 28 29V41.556C27.3947 41.1961 26.7043 41.0041 26 41C24.9391 41 23.9217 41.4214 23.1716 42.1716C22.4214 42.9217 22 43.9391 22 45C22 46.0609 22.4214 47.0783 23.1716 47.8284C23.9217 48.5786 24.9391 49 26 49ZM40 44C39.6044 44 39.2178 43.8827 38.8889 43.6629C38.56 43.4432 38.3036 43.1308 38.1522 42.7654C38.0009 42.3999 37.9613 41.9978 38.0384 41.6098C38.1156 41.2218 38.3061 40.8655 38.5858 40.5858C38.8655 40.3061 39.2219 40.1156 39.6098 40.0384C39.9978 39.9613 40.3999 40.0009 40.7654 40.1522C41.1308 40.3036 41.4432 40.56 41.6629 40.8889C41.8827 41.2178 42 41.6044 42 42C42 42.5304 41.7893 43.0391 41.4142 43.4142C41.0391 43.7893 40.5304 44 40 44ZM42 27.237V30.191L30 32.763V29.809L42 27.237ZM26 43C26.3956 43 26.7822 43.1173 27.1111 43.3371C27.44 43.5568 27.6964 43.8692 27.8478 44.2346C27.9991 44.6001 28.0387 45.0022 27.9616 45.3902C27.8844 45.7781 27.6939 46.1345 27.4142 46.4142C27.1345 46.6939 26.7781 46.8844 26.3902 46.9616C26.0022 47.0387 25.6001 46.9991 25.2346 46.8478C24.8692 46.6964 24.5568 46.44 24.3371 46.1111C24.1173 45.7822 24 45.3956 24 45C24 44.4696 24.2107 43.9609 24.5858 43.5858C24.9609 43.2107 25.4696 43 26 43V43Z" fill="#231F20"/>
</svg>
