<?xml version="1.0" encoding="utf-8"?>
<!-- Generator: Adobe Illustrator 23.0.3, SVG Export Plug-In . SVG Version: 6.00 Build 0)  -->
<svg version="1.1" id="Layer_1" xmlns="http://www.w3.org/2000/svg" xmlns:xlink="http://www.w3.org/1999/xlink" x="0px" y="0px"
	 viewBox="0 0 153.6 153.6" style="enable-background:new 0 0 153.6 153.6;" xml:space="preserve">
<style type="text/css">
	.st0{fill:#F33D30;}
	.st1{fill:#00C698;}
	.st2{fill:#EE6B63;}
	.st3{fill:#0D565F;}
	.st4{fill:#9C543C;}
	.st5{fill:#DF8B11;}
	.st6{fill:#176080;}
	.st7{fill:#FF8907;}
	.st8{fill:#CA314D;}
	.st9{fill:#2BC21F;}
	.st10{fill:#66ACDD;}
	.st11{fill:#585A69;}
	.st12{fill:#30A791;}
	.st13{fill:#F33E29;}
	.st14{fill:#ECCA07;}
	.st15{fill:#F08F1E;}
	.st16{fill:#E2D500;}
	.st17{fill:#90C52F;}
	.st18{fill:#F2CC79;}
	.st19{fill:#C14543;}
	.st20{fill:#BDBDBD;}
	.st21{fill:#76B8C4;}
	.st22{fill:#40B19F;}
	.st23{fill:#FF9312;}
	.st24{fill:#010101;}
	.st25{fill:#9E0CD9;}
	.st26{fill:url(#SVGID_1_);}
	.st27{fill:url(#SVGID_2_);}
	.st28{fill:url(#SVGID_3_);}
	.st29{fill:url(#SVGID_4_);}
	.st30{fill:url(#SVGID_5_);}
	.st31{fill:url(#SVGID_6_);}
	.st32{fill:url(#SVGID_7_);}
	.st33{fill:url(#SVGID_8_);}
	.st34{fill:url(#SVGID_9_);}
	.st35{fill:url(#SVGID_10_);}
	.st36{fill:url(#SVGID_11_);}
	.st37{fill:url(#SVGID_12_);}
	.st38{fill:url(#SVGID_13_);}
	.st39{fill:url(#SVGID_14_);}
	.st40{fill:url(#SVGID_15_);}
	.st41{fill:url(#SVGID_16_);}
	.st42{fill:url(#SVGID_17_);}
	.st43{fill:url(#SVGID_18_);}
	.st44{fill:url(#SVGID_19_);}
	.st45{fill:url(#SVGID_20_);}
	.st46{fill:url(#SVGID_21_);}
	.st47{fill:url(#SVGID_22_);}
	.st48{fill:url(#SVGID_23_);}
	.st49{fill:url(#SVGID_24_);}
	.st50{fill:url(#SVGID_25_);}
	.st51{fill:#FFFFFF;}
	.st52{fill:url(#SVGID_26_);}
	.st53{fill:url(#SVGID_27_);}
	.st54{fill:url(#SVGID_28_);}
	.st55{fill:url(#SVGID_29_);}
	.st56{fill:url(#SVGID_30_);}
	.st57{fill:url(#SVGID_31_);}
	.st58{fill:url(#SVGID_32_);}
	.st59{fill:url(#SVGID_33_);}
	.st60{fill:url(#SVGID_34_);}
	.st61{fill:url(#SVGID_35_);}
	.st62{fill:url(#SVGID_36_);}
	.st63{fill:url(#SVGID_37_);}
	.st64{fill:url(#SVGID_38_);}
	.st65{fill:url(#SVGID_39_);}
	.st66{fill:url(#SVGID_40_);}
	.st67{fill:url(#SVGID_41_);}
	.st68{fill:url(#SVGID_42_);}
	.st69{fill:url(#SVGID_43_);}
	.st70{fill:url(#SVGID_44_);}
	.st71{fill:url(#SVGID_45_);}
	.st72{fill:url(#SVGID_46_);}
	.st73{fill:url(#SVGID_47_);}
	.st74{fill:url(#SVGID_48_);}
	.st75{fill:url(#SVGID_49_);}
	.st76{fill:url(#SVGID_50_);}
	.st77{fill:url(#SVGID_51_);}
	.st78{fill:url(#SVGID_52_);}
	.st79{fill:url(#SVGID_53_);}
	.st80{fill:url(#SVGID_54_);}
	.st81{fill:url(#SVGID_55_);}
	.st82{fill:url(#SVGID_56_);}
	.st83{fill:url(#SVGID_57_);}
	.st84{fill:url(#SVGID_58_);}
	.st85{fill:url(#SVGID_59_);}
	.st86{fill:url(#SVGID_60_);}
	.st87{fill:url(#SVGID_61_);}
	.st88{fill:url(#SVGID_62_);}
	.st89{fill:url(#SVGID_63_);}
	.st90{fill:url(#SVGID_64_);}
	.st91{fill:url(#SVGID_65_);}
	.st92{fill:url(#SVGID_66_);}
	.st93{fill:url(#SVGID_67_);}
	.st94{fill:url(#SVGID_68_);}
	.st95{fill:url(#SVGID_69_);}
	.st96{fill:url(#SVGID_70_);}
	.st97{fill:url(#SVGID_71_);}
	.st98{fill:url(#SVGID_72_);}
	.st99{fill:url(#SVGID_73_);}
	.st100{fill:url(#SVGID_74_);}
	.st101{fill:url(#SVGID_75_);}
</style>
<g>
	<g>
		<path d="M37.7,63.5H22.9c-1.6,0-2.9-1.3-2.9-2.9v0c0-1.6,1.3-2.9,2.9-2.9h14.8c1.6,0,2.9,1.3,2.9,2.9v0
			C40.7,62.2,39.4,63.5,37.7,63.5z"/>
		<path d="M37.7,71.7H22.9c-1.6,0-2.9-1.3-2.9-2.9v0c0-1.6,1.3-2.9,2.9-2.9h14.8c1.6,0,2.9,1.3,2.9,2.9v0
			C40.7,70.3,39.4,71.7,37.7,71.7z"/>
		<path d="M37.7,79.8H22.9c-1.6,0-2.9-1.3-2.9-2.9l0,0c0-1.6,1.3-2.9,2.9-2.9h14.8c1.6,0,2.9,1.3,2.9,2.9l0,0
			C40.7,78.5,39.4,79.8,37.7,79.8z"/>
		<path d="M37.7,88H22.9c-1.6,0-2.9-1.3-2.9-2.9l0,0c0-1.6,1.3-2.9,2.9-2.9h14.8c1.6,0,2.9,1.3,2.9,2.9l0,0
			C40.7,86.7,39.4,88,37.7,88z"/>
		<path d="M37.7,96.2H22.9c-1.6,0-2.9-1.3-2.9-2.9v0c0-1.6,1.3-2.9,2.9-2.9h14.8c1.6,0,2.9,1.3,2.9,2.9v0
			C40.7,94.9,39.4,96.2,37.7,96.2z"/>
		<path d="M37.7,104.3H22.9c-1.6,0-2.9-1.3-2.9-2.9v0c0-1.6,1.3-2.9,2.9-2.9h14.8c1.6,0,2.9,1.3,2.9,2.9v0
			C40.7,103,39.4,104.3,37.7,104.3z"/>
		<path d="M37.7,112.5H22.9c-1.6,0-2.9-1.3-2.9-2.9v0c0-1.6,1.3-2.9,2.9-2.9h14.8c1.6,0,2.9,1.3,2.9,2.9v0
			C40.7,111.2,39.4,112.5,37.7,112.5z"/>
		<path d="M37.7,120.7H22.9c-1.6,0-2.9-1.3-2.9-2.9v0c0-1.6,1.3-2.9,2.9-2.9h14.8c1.6,0,2.9,1.3,2.9,2.9v0
			C40.7,119.4,39.4,120.7,37.7,120.7z"/>
		<path d="M85.3,63.5H70.4c-1.6,0-2.9-1.3-2.9-2.9v0c0-1.6,1.3-2.9,2.9-2.9h14.8c1.6,0,2.9,1.3,2.9,2.9v0
			C88.2,62.2,86.9,63.5,85.3,63.5z"/>
		<path d="M85.3,71.7H70.4c-1.6,0-2.9-1.3-2.9-2.9v0c0-1.6,1.3-2.9,2.9-2.9h14.8c1.6,0,2.9,1.3,2.9,2.9v0
			C88.2,70.3,86.9,71.7,85.3,71.7z"/>
		<path d="M85.3,79.8H70.4c-1.6,0-2.9-1.3-2.9-2.9l0,0c0-1.6,1.3-2.9,2.9-2.9h14.8c1.6,0,2.9,1.3,2.9,2.9l0,0
			C88.2,78.5,86.9,79.8,85.3,79.8z"/>
		<path d="M85.3,88H70.4c-1.6,0-2.9-1.3-2.9-2.9l0,0c0-1.6,1.3-2.9,2.9-2.9h14.8c1.6,0,2.9,1.3,2.9,2.9l0,0
			C88.2,86.7,86.9,88,85.3,88z"/>
		<path d="M85.3,96.2H70.4c-1.6,0-2.9-1.3-2.9-2.9v0c0-1.6,1.3-2.9,2.9-2.9h14.8c1.6,0,2.9,1.3,2.9,2.9v0
			C88.2,94.9,86.9,96.2,85.3,96.2z"/>
		<path d="M85.3,104.3H70.4c-1.6,0-2.9-1.3-2.9-2.9v0c0-1.6,1.3-2.9,2.9-2.9h14.8c1.6,0,2.9,1.3,2.9,2.9v0
			C88.2,103,86.9,104.3,85.3,104.3z"/>
		<path d="M85.3,112.5H70.4c-1.6,0-2.9-1.3-2.9-2.9v0c0-1.6,1.3-2.9,2.9-2.9h14.8c1.6,0,2.9,1.3,2.9,2.9v0
			C88.2,111.2,86.9,112.5,85.3,112.5z"/>
		<path d="M85.3,120.7H70.4c-1.6,0-2.9-1.3-2.9-2.9v0c0-1.6,1.3-2.9,2.9-2.9h14.8c1.6,0,2.9,1.3,2.9,2.9v0
			C88.2,119.4,86.9,120.7,85.3,120.7z"/>
		<path d="M61.5,112.5H46.7c-1.6,0-2.9-1.3-2.9-2.9v0c0-1.6,1.3-2.9,2.9-2.9h14.8c1.6,0,2.9,1.3,2.9,2.9v0
			C64.4,111.2,63.1,112.5,61.5,112.5z"/>
		<path d="M61.5,120.7H46.7c-1.6,0-2.9-1.3-2.9-2.9v0c0-1.6,1.3-2.9,2.9-2.9h14.8c1.6,0,2.9,1.3,2.9,2.9v0
			C64.4,119.4,63.1,120.7,61.5,120.7z"/>
		<path d="M108.6,63.5H93.7c-1.6,0-2.9-1.3-2.9-2.9v0c0-1.6,1.3-2.9,2.9-2.9h14.8c1.6,0,2.9,1.3,2.9,2.9v0
			C111.5,62.2,110.2,63.5,108.6,63.5z"/>
		<path d="M108.6,71.7H93.7c-1.6,0-2.9-1.3-2.9-2.9v0c0-1.6,1.3-2.9,2.9-2.9h14.8c1.6,0,2.9,1.3,2.9,2.9v0
			C111.5,70.3,110.2,71.7,108.6,71.7z"/>
		<path d="M108.6,79.8H93.7c-1.6,0-2.9-1.3-2.9-2.9l0,0c0-1.6,1.3-2.9,2.9-2.9h14.8c1.6,0,2.9,1.3,2.9,2.9l0,0
			C111.5,78.5,110.2,79.8,108.6,79.8z"/>
		<path d="M108.6,88H93.7c-1.6,0-2.9-1.3-2.9-2.9l0,0c0-1.6,1.3-2.9,2.9-2.9h14.8c1.6,0,2.9,1.3,2.9,2.9l0,0
			C111.5,86.7,110.2,88,108.6,88z"/>
		<path d="M108.6,39H93.7c-1.6,0-2.9-1.3-2.9-2.9v0c0-1.6,1.3-2.9,2.9-2.9h14.8c1.6,0,2.9,1.3,2.9,2.9v0
			C111.5,37.6,110.2,39,108.6,39z"/>
		<path d="M108.6,47.1H93.7c-1.6,0-2.9-1.3-2.9-2.9v0c0-1.6,1.3-2.9,2.9-2.9h14.8c1.6,0,2.9,1.3,2.9,2.9v0
			C111.5,45.8,110.2,47.1,108.6,47.1z"/>
		<path d="M108.6,55.3H93.7c-1.6,0-2.9-1.3-2.9-2.9v0c0-1.6,1.3-2.9,2.9-2.9h14.8c1.6,0,2.9,1.3,2.9,2.9v0
			C111.5,54,110.2,55.3,108.6,55.3z"/>
		<path d="M108.6,96.2H93.7c-1.6,0-2.9-1.3-2.9-2.9v0c0-1.6,1.3-2.9,2.9-2.9h14.8c1.6,0,2.9,1.3,2.9,2.9v0
			C111.5,94.9,110.2,96.2,108.6,96.2z"/>
		<path d="M108.6,104.3H93.7c-1.6,0-2.9-1.3-2.9-2.9v0c0-1.6,1.3-2.9,2.9-2.9h14.8c1.6,0,2.9,1.3,2.9,2.9v0
			C111.5,103,110.2,104.3,108.6,104.3z"/>
		<path d="M108.6,112.5H93.7c-1.6,0-2.9-1.3-2.9-2.9v0c0-1.6,1.3-2.9,2.9-2.9h14.8c1.6,0,2.9,1.3,2.9,2.9v0
			C111.5,111.2,110.2,112.5,108.6,112.5z"/>
		<path d="M108.6,120.7H93.7c-1.6,0-2.9-1.3-2.9-2.9v0c0-1.6,1.3-2.9,2.9-2.9h14.8c1.6,0,2.9,1.3,2.9,2.9v0
			C111.5,119.4,110.2,120.7,108.6,120.7z"/>
		<path d="M132.3,63.5h-14.8c-1.6,0-2.9-1.3-2.9-2.9v0c0-1.6,1.3-2.9,2.9-2.9h14.8c1.6,0,2.9,1.3,2.9,2.9v0
			C135.3,62.2,133.9,63.5,132.3,63.5z"/>
		<path d="M132.3,71.7h-14.8c-1.6,0-2.9-1.3-2.9-2.9v0c0-1.6,1.3-2.9,2.9-2.9h14.8c1.6,0,2.9,1.3,2.9,2.9v0
			C135.3,70.3,133.9,71.7,132.3,71.7z"/>
		<path d="M132.3,79.8h-14.8c-1.6,0-2.9-1.3-2.9-2.9l0,0c0-1.6,1.3-2.9,2.9-2.9h14.8c1.6,0,2.9,1.3,2.9,2.9l0,0
			C135.3,78.5,133.9,79.8,132.3,79.8z"/>
		<path d="M132.3,88h-14.8c-1.6,0-2.9-1.3-2.9-2.9l0,0c0-1.6,1.3-2.9,2.9-2.9h14.8c1.6,0,2.9,1.3,2.9,2.9l0,0
			C135.3,86.7,133.9,88,132.3,88z"/>
		<path d="M132.3,96.2h-14.8c-1.6,0-2.9-1.3-2.9-2.9v0c0-1.6,1.3-2.9,2.9-2.9h14.8c1.6,0,2.9,1.3,2.9,2.9v0
			C135.3,94.9,133.9,96.2,132.3,96.2z"/>
		<path d="M132.3,104.3h-14.8c-1.6,0-2.9-1.3-2.9-2.9v0c0-1.6,1.3-2.9,2.9-2.9h14.8c1.6,0,2.9,1.3,2.9,2.9v0
			C135.3,103,133.9,104.3,132.3,104.3z"/>
		<path d="M132.3,112.5h-14.8c-1.6,0-2.9-1.3-2.9-2.9v0c0-1.6,1.3-2.9,2.9-2.9h14.8c1.6,0,2.9,1.3,2.9,2.9v0
			C135.3,111.2,133.9,112.5,132.3,112.5z"/>
		<path d="M132.3,120.7h-14.8c-1.6,0-2.9-1.3-2.9-2.9v0c0-1.6,1.3-2.9,2.9-2.9h14.8c1.6,0,2.9,1.3,2.9,2.9v0
			C135.3,119.4,133.9,120.7,132.3,120.7z"/>
	</g>
</g>
</svg>
