<svg width="45" height="51" viewBox="0 0 45 51" fill="none" xmlns="http://www.w3.org/2000/svg">
<path d="M4.16667 0H5.83334V21.25H4.16667V0Z" fill="black"/>
<path d="M4.16667 29.75H5.83334V51H4.16667V29.75Z" fill="black"/>
<path d="M4.99999 29.75C7.30118 29.75 9.16666 27.8472 9.16666 25.5C9.16666 23.1528 7.30118 21.25 4.99999 21.25C2.69881 21.25 0.833328 23.1528 0.833328 25.5C0.833328 27.8472 2.69881 29.75 4.99999 29.75Z" fill="#FF8000"/>
<path d="M5 30.6C2.2425 30.6 0 28.3126 0 25.5C0 22.6873 2.2425 20.4 5 20.4C7.7575 20.4 10 22.6873 10 25.5C10 28.3126 7.7575 30.6 5 30.6ZM5 22.1C3.16167 22.1 1.66667 23.6249 1.66667 25.5C1.66667 27.3751 3.16167 28.9 5 28.9C6.83833 28.9 8.33333 27.3751 8.33333 25.5C8.33333 23.6249 6.83833 22.1 5 22.1Z" fill="black"/>
<path d="M21.6667 0H23.3333V34.85H21.6667V0Z" fill="black"/>
<path d="M21.6667 43.35H23.3333V51H21.6667V43.35Z" fill="black"/>
<path d="M22.5 43.35C24.8012 43.35 26.6667 41.4472 26.6667 39.1C26.6667 36.7528 24.8012 34.85 22.5 34.85C20.1988 34.85 18.3333 36.7528 18.3333 39.1C18.3333 41.4472 20.1988 43.35 22.5 43.35Z" fill="#666666"/>
<path d="M22.5 44.2C19.7425 44.2 17.5 41.9126 17.5 39.1C17.5 36.2873 19.7425 34 22.5 34C25.2575 34 27.5 36.2873 27.5 39.1C27.5 41.9126 25.2575 44.2 22.5 44.2ZM22.5 35.7C20.6617 35.7 19.1667 37.2249 19.1667 39.1C19.1667 40.9751 20.6617 42.5 22.5 42.5C24.3383 42.5 25.8333 40.9751 25.8333 39.1C25.8333 37.2249 24.3383 35.7 22.5 35.7Z" fill="black"/>
<path d="M39.1667 0H40.8333V11.05H39.1667V0Z" fill="black"/>
<path d="M39.1667 19.55H40.8333V51H39.1667V19.55Z" fill="black"/>
<path d="M40 19.55C42.3012 19.55 44.1667 17.6472 44.1667 15.3C44.1667 12.9528 42.3012 11.05 40 11.05C37.6988 11.05 35.8333 12.9528 35.8333 15.3C35.8333 17.6472 37.6988 19.55 40 19.55Z" fill="#3EBBDD"/>
<path d="M40 20.4C37.2425 20.4 35 18.1127 35 15.3C35 12.4874 37.2425 10.2 40 10.2C42.7575 10.2 45 12.4874 45 15.3C45 18.1127 42.7575 20.4 40 20.4ZM40 11.9C38.1617 11.9 36.6667 13.4249 36.6667 15.3C36.6667 17.1751 38.1617 18.7 40 18.7C41.8383 18.7 43.3333 17.1751 43.3333 15.3C43.3333 13.4249 41.8383 11.9 40 11.9Z" fill="black"/>
</svg>
